<svg width="916" height="429" viewBox="0 0 916 429" fill="none" xmlns="http://www.w3.org/2000/svg">
<g clip-path="url(#clip0_21_973)">
<path d="M196.07 136.01C152.53 136.01 109.48 136.01 66.1398 136.01C66.1398 177.29 66.1398 218.41 66.1398 259.69C51.6298 259.69 37.4198 259.69 23.0298 259.69C23.0298 173.3 23.0298 86.94 23.0298 0.440002C37.3198 0.440002 51.5298 0.440002 66.0198 0.440002C66.0198 41.63 66.0198 82.75 66.0198 124.08C109.4 124.08 152.51 124.08 195.99 124.08C195.99 82.93 195.99 41.75 195.99 0.440002C210.57 0.440002 224.77 0.440002 239.14 0.440002C239.14 86.88 239.14 173.23 239.14 259.71C224.8 259.71 210.59 259.71 196.07 259.71C196.07 218.46 196.07 177.34 196.07 136.01Z" fill="#FCFCFC"/>
<path d="M882.61 24.94C879.49 28.03 876.48 31.01 873.93 33.54C868.7 29.3 863.89 24.19 858.06 20.91C837.39 9.25999 816.07 7.67999 795.23 20.25C778.24 30.5 772.05 47.44 774.83 65.63C775.98 73.13 780.75 78.77 787.1 82.51C796.05 87.78 805.39 92.39 814.56 97.29C827.4 104.14 840.93 109.8 852.71 118.48C860.27 124.05 867.65 129.94 874.61 136.23C884.96 145.58 889.9 157.88 891.6 171.46C893.46 186.34 892.68 201.07 887.4 215.29C882.86 227.52 874.96 236.95 863.65 243.58C842.28 256.11 819.03 260.83 794.58 259.5C773.49 258.35 755.16 250.31 740.59 234.7C737.22 231.09 734.54 226.83 731.55 222.87C735.37 219.17 738.78 215.87 742.32 212.44C743.03 213.98 743.78 215.68 744.6 217.35C751.62 231.75 763.47 240.35 778.43 244.89C796.99 250.53 814.64 248.62 830.9 237.56C843.53 228.97 848.76 216.51 849.27 201.69C849.61 191.56 848.17 181.76 841.72 173.59C838.52 169.53 834.63 165.8 830.42 162.79C817.13 153.28 802.94 145.24 788.25 138.07C774.75 131.48 762.06 123.53 749.9 114.73C738.82 106.72 732.48 95.86 731.27 82.22C730.01 68.07 731.65 54.3 737.34 41.16C742.52 29.19 751.37 20.7 762.64 14.49C784.09 2.66999 807.23 -1.37001 831.38 0.369991C851.49 1.82999 868.79 9.80999 882.61 24.94Z" fill="#FCFCFC"/>
<path d="M460.44 258.2C459.42 258.26 458.7 258.35 457.97 258.35C448.22 258.36 438.47 258.31 428.72 258.39C426.96 258.4 426.09 257.82 425.35 256.22C403.03 208.25 380.65 160.31 358.27 112.36C357.72 111.18 357.13 110.01 356.34 108.4C355.71 109.62 355.25 110.45 354.85 111.3C332.47 159.33 310.08 207.36 287.77 255.43C286.75 257.63 285.62 258.71 283.12 258.39C281.34 258.16 279.51 258.35 277.31 258.35C278.56 255.63 279.62 253.3 280.7 250.98C308.21 191.94 335.74 132.9 363.2 73.83C364.04 72.03 365.05 71.65 366.92 71.39C371.85 70.71 374.19 72.63 376.31 77.21C403.79 136.63 431.54 195.94 459.21 255.27C459.62 256.17 459.97 257.08 460.44 258.2Z" fill="#FCFCFC"/>
<path d="M462.6 73.15C463.83 73.08 464.62 73 465.42 73C476.17 72.99 486.92 73.04 497.66 72.95C499.53 72.93 500.67 73.5 501.75 75.05C518.64 99.21 535.6 123.32 552.54 147.43C553.1 148.23 553.69 149.01 554.45 150.06C558.95 144.7 563.28 139.56 567.6 134.42C584.36 114.45 601.1 94.47 617.92 74.54C618.61 73.73 619.95 73.13 621.03 73.05C623.75 72.84 626.5 72.98 629.61 72.98C629.13 73.74 628.89 74.23 628.55 74.64C605.95 101.57 583.34 128.47 560.79 155.44C559.93 156.47 559.35 158.07 559.34 159.41C559.26 191.82 559.28 224.23 559.28 256.64C559.28 257.62 559.28 258.59 559.28 259.7C548.86 259.7 538.74 259.7 528.3 259.7C528.3 258.52 528.3 257.46 528.3 256.41C528.3 227.67 528.28 198.92 528.34 170.18C528.34 167.97 527.75 166.24 526.49 164.45C505.82 135.02 485.2 105.54 464.58 76.07C463.98 75.23 463.4 74.35 462.6 73.15Z" fill="#FCFCFC"/>
<path d="M915.49 308.01C915.49 310.01 915.49 311.82 915.49 313.83C610.32 313.83 305.25 313.83 0 313.83C0 311.96 0 310.09 0 308.01C305.05 308.01 610.13 308.01 915.49 308.01Z" fill="#FCFCFC"/>
<path d="M740.03 401.58C746.37 410.47 752.52 419.1 758.96 428.13C755.43 428.13 752.38 428.21 749.34 428.06C748.72 428.03 748.01 427.22 747.56 426.6C742.45 419.51 737.41 412.37 732.27 405.31C731.73 404.57 730.64 403.77 729.8 403.77C722.23 403.77 714.65 403.93 707.08 404.06C706.67 404.07 706.26 404.14 705.55 404.21C705.55 412.09 705.55 419.95 705.55 427.98C702.54 427.98 699.83 427.98 696.91 427.98C696.91 402.49 696.91 376.99 696.91 351.33C697.3 351.24 697.76 351.03 698.22 351.03C708.38 351.06 718.54 350.95 728.69 351.23C735.92 351.43 742.54 353.71 748.22 358.44C759.58 367.92 759.98 392.87 741.96 400.67C741.43 400.9 740.92 401.16 740.03 401.58ZM705.6 359.45C705.6 371.54 705.6 383.55 705.6 396.16C714.75 395.79 723.76 395.92 732.63 394.9C739.55 394.1 744.98 390.18 746.61 382.82C748.21 375.59 747.32 368.84 741.17 363.77C737.99 361.15 734.15 359.81 730.13 359.64C722.32 359.3 714.49 359.35 706.67 359.24C706.35 359.23 706.04 359.36 705.6 359.45Z" fill="#FCFCFC"/>
<path d="M563.31 427.97C563.31 402.37 563.31 376.9 563.31 351.22C580.76 351.22 598.12 351.22 615.65 351.22C615.65 353.74 615.65 356.28 615.65 359.13C601.23 359.13 586.79 359.13 572.14 359.13C572.14 367.78 572.14 376.14 572.14 384.74C585.1 384.74 597.98 384.74 611.05 384.74C611.05 387.58 611.05 390.17 611.05 393.01C598.08 393.01 585.2 393.01 572.13 393.01C572.13 402.02 572.13 410.79 572.13 419.77C587.17 419.77 602.05 419.77 617.16 419.77C617.16 422.58 617.16 425.18 617.16 427.97C599.35 427.97 581.48 427.97 563.31 427.97Z" fill="#FCFCFC"/>
<path d="M241.61 427.95C241.28 428.04 241.2 428.08 241.12 428.08C238.29 428.08 234.89 429.05 232.8 427.81C230.77 426.61 230.01 423.17 228.81 420.66C227.02 416.91 225.28 413.13 223.64 409.31C223.03 407.89 222.28 407.31 220.68 407.32C208.52 407.38 196.37 407.38 184.21 407.32C182.73 407.31 181.98 407.81 181.4 409.15C178.87 414.94 176.21 420.67 173.67 426.46C173.13 427.7 172.47 428.24 171.07 428.17C168.6 428.05 166.12 428.14 163.29 428.14C165.79 422.67 168.16 417.47 170.55 412.28C179.58 392.64 188.64 373.02 197.6 353.35C198.42 351.56 199.41 351.14 201.3 350.89C205.33 350.36 206.99 352.13 208.58 355.65C219.14 379.07 229.96 402.36 240.69 425.7C240.99 426.37 241.25 427.06 241.61 427.95ZM219.07 399.2C213.49 386.96 208.09 375.13 202.48 362.82C196.89 375.17 191.5 387.05 185.99 399.2C197.23 399.2 207.94 399.2 219.07 399.2Z" fill="#FCFCFC"/>
<path d="M94.3902 362.24C92.3302 364.4 90.5502 366.27 89.0202 367.87C85.3702 365.59 82.1202 362.81 78.3702 361.33C62.5302 355.08 41.0402 360.58 35.1202 380.65C29.2502 400.55 43.9502 420.21 64.7102 420.23C71.0802 420.24 77.0902 418.97 82.6502 415.76C84.1802 414.87 84.8302 413.82 84.8002 411.98C84.7002 404.16 84.7602 396.34 84.7602 388.34C87.6202 388.34 90.3102 388.34 93.1602 388.34C93.2103 389 93.3102 389.64 93.3102 390.28C93.3202 398.94 93.3702 407.61 93.2502 416.27C93.2402 417.33 92.6102 418.69 91.8102 419.38C83.7002 426.38 74.0802 429.1 63.5702 428.55C48.1202 427.75 35.8702 421.16 28.9802 406.94C18.2602 384.82 29.4202 355.31 58.2602 351.12C69.5202 349.48 80.1902 350.95 89.5702 357.98C91.2302 359.21 92.6802 360.71 94.3902 362.24Z" fill="#FCFCFC"/>
<path d="M662.76 74.56C666.08 70.42 669.34 66.65 672.22 62.62C673.43 60.93 674.09 58.72 674.53 56.65C675.11 53.91 673.96 51.94 671.53 50.7C664.97 47.37 661.62 41.83 661.4 34.69C661.18 27.44 664.75 21.9 670.87 18.19C682.25 11.28 695.9 17.58 698.73 31.37C701.74 46.02 696.43 57.99 685.44 67.67C680.49 72.03 674.67 74.85 668.33 76.58C664.66 77.6 664.65 77.58 662.76 74.56Z" fill="#FCFCFC"/>
<path d="M860.69 428.03C857.57 428.03 854.85 428.03 851.84 428.03C851.84 423.54 851.45 419.1 851.92 414.77C852.91 405.63 850.27 397.94 845.13 390.34C837.07 378.42 829.93 365.88 822.41 353.6C821.99 352.91 821.61 352.19 820.97 351.05C824.29 351.05 827.24 350.94 830.17 351.14C830.81 351.18 831.51 352.26 831.96 352.99C839.56 365.32 847.13 377.67 854.72 390.01C855.19 390.77 855.69 391.52 856.36 392.57C857 391.63 857.52 390.93 857.97 390.19C865.47 377.99 873.01 365.82 880.39 353.55C881.6 351.54 882.93 350.79 885.17 350.97C887.14 351.13 889.13 351 891.59 351C890.92 352.16 890.5 352.93 890.04 353.68C880.64 369.01 871.21 384.32 861.87 399.69C861.18 400.82 860.78 402.31 860.76 403.63C860.65 410.79 860.71 417.96 860.71 425.13C860.69 426.02 860.69 426.92 860.69 428.03Z" fill="#FCFCFC"/>
<path d="M438.57 428.01C438.57 402.37 438.57 376.91 438.57 351.23C441.43 351.23 444.2 351.23 447.28 351.23C447.28 373.99 447.28 396.76 447.28 419.79C461.53 419.79 475.48 419.79 489.59 419.79C489.59 422.66 489.59 425.27 489.59 428.01C472.61 428.01 455.73 428.01 438.57 428.01Z" fill="#FCFCFC"/>
<path d="M322.62 419.8C324.01 419.8 324.99 419.8 325.97 419.8C338.13 419.8 350.29 419.85 362.45 419.75C364.56 419.73 365.26 420.39 365.09 422.44C364.94 424.24 365.06 426.06 365.06 428C347.89 428 331.02 428 314 428C314 402.42 314 376.9 314 351.18C316.83 351.18 319.6 351.18 322.62 351.18C322.62 373.98 322.62 396.69 322.62 419.8Z" fill="#FCFCFC"/>
</g>
<defs>
<clipPath id="clip0_21_973">
<rect width="915.49" height="428.61" fill="white"/>
</clipPath>
</defs>
</svg>
